<?xml version="1.0" encoding="UTF-8" standalone="no"?>
<svg
   xmlns:dc="http://purl.org/dc/elements/1.1/"
   xmlns:cc="http://creativecommons.org/ns#"
   xmlns:rdf="http://www.w3.org/1999/02/22-rdf-syntax-ns#"
   xmlns:svg="http://www.w3.org/2000/svg"
   xmlns="http://www.w3.org/2000/svg"
   xmlns:sodipodi="http://sodipodi.sourceforge.net/DTD/sodipodi-0.dtd"
   xmlns:inkscape="http://www.inkscape.org/namespaces/inkscape"
   inkscape:version="1.0 (4035a4f, 2020-05-01)"
   sodipodi:docname="default.svg"
   id="svg852"
   version="1.1"
   class="iconLeft"
   viewBox="0 0 300 300"
   data-v-fde0c5aa="">
  <metadata
     id="metadata856">
    <rdf:RDF>
      <cc:Work
         rdf:about="">
        <dc:format>image/svg+xml</dc:format>
        <dc:type
           rdf:resource="http://purl.org/dc/dcmitype/StillImage" />
      </cc:Work>
    </rdf:RDF>
  </metadata>
  <sodipodi:namedview
     inkscape:current-layer="svg852"
     inkscape:window-maximized="0"
     inkscape:window-y="0"
     inkscape:window-x="0"
     inkscape:cy="126.25695"
     inkscape:cx="147.25449"
     inkscape:zoom="0.85455295"
     showgrid="false"
     id="namedview854"
     inkscape:window-height="900"
     inkscape:window-width="1440"
     inkscape:pageshadow="2"
     inkscape:pageopacity="0"
     guidetolerance="10"
     gridtolerance="10"
     objecttolerance="10"
     borderopacity="1"
     bordercolor="#666666"
     pagecolor="#ffffff" />
  <!---->
  <defs
     id="defs838"
     data-v-fde0c5aa="">
    <linearGradient
       y2="0%"
       x2="100%"
       y1="0%"
       x1="0%"
       id="cb5e0786-3f06-4d64-878a-3cbdfd75e28d"
       gradientTransform="rotate(25)"
       data-v-fde0c5aa="">
      <stop
         id="stop833"
         stop-opacity="1"
         stop-color="#021802"
         offset="0%"
         data-v-fde0c5aa="" />
      <stop
         id="stop835"
         stop-opacity="1"
         stop-color="#60DBCC"
         offset="100%"
         data-v-fde0c5aa="" />
    </linearGradient>
  </defs>
  <rect
     style="fill:none;fill-opacity:1"
     id="rect840"
     class="logo-background-square"
     height="300"
     width="300"
     y="0"
     x="0"
     fill="url(#cb5e0786-3f06-4d64-878a-3cbdfd75e28d)"
     data-v-fde0c5aa="" />
  <defs
     id="defs842"
     data-v-fde0c5aa="">
    <!---->
  </defs>
  <g
     transform="matrix(2.5897627633916462,0,0,2.5897627633916462,95.575953020215,128.47907158440282)"
     fill="#ffffff"
     id="76bf31cb-abbc-403b-8111-8c9e624612e4"
     data-v-fde0c5aa="">
    <path
       id="path844"
       d="M5.60 13.93L5.60 13.93Q3.08 13.93 1.75 12.50L1.75 12.50L1.75 12.50Q0.42 11.06 0.42 8.50L0.42 8.50L0.42 8.50Q0.42 6.85 1.06 5.58L1.06 5.58L1.06 5.58Q1.69 4.31 2.86 3.61L2.86 3.61L2.86 3.61Q4.03 2.90 5.60 2.90L5.60 2.90L5.60 2.90Q6.89 2.90 7.87 3.31L7.87 3.31L7.87 3.31Q8.85 3.72 9.46 4.48L9.46 4.48L9.46 4.48Q9.72 4.77 9.72 5.31L9.72 5.31L9.72 5.31Q9.72 5.84 9.35 6.21L9.35 6.21L9.35 6.21Q8.97 6.58 8.44 6.58L8.44 6.58L8.44 6.58Q8.11 6.58 7.81 6.41L7.81 6.41L7.81 6.41Q7.50 6.24 7.34 5.96L7.34 5.96L7.34 5.96Q6.78 5.01 5.60 5.01L5.60 5.01L5.60 5.01Q4.54 5.01 3.89 5.84L3.89 5.84L3.89 5.84Q3.25 6.68 3.25 8.37L3.25 8.37L3.25 8.37Q3.25 10.11 3.91 10.96L3.91 10.96L3.91 10.96Q4.56 11.82 5.60 11.82L5.60 11.82L5.60 11.82Q6.83 11.82 7.42 10.75L7.42 10.75L7.42 10.75Q7.59 10.44 7.90 10.25L7.90 10.25L7.90 10.25Q8.20 10.07 8.57 10.07L8.57 10.07L8.57 10.07Q9.10 10.07 9.48 10.45L9.48 10.45L9.48 10.45Q9.87 10.84 9.87 11.38L9.87 11.38L9.87 11.38Q9.87 11.80 9.62 12.17L9.62 12.17L9.62 12.17Q8.33 13.93 5.60 13.93L5.60 13.93ZM12.91 13.87L12.91 13.87Q12.19 13.87 11.60 13.60L11.60 13.60L11.60 13.60Q11.00 13.33 10.65 12.80L10.65 12.80L10.65 12.80Q10.30 12.28 10.30 11.55L10.30 11.55L10.30 11.55Q10.30 10.07 11.42 9.57L11.42 9.57L11.42 9.57Q12.54 9.07 14.25 9.07L14.25 9.07L14.25 9.07Q14.57 9.07 14.73 9.09L14.73 9.09L15.20 9.10L15.20 9.10Q15.20 8.62 15.13 8.34L15.13 8.34L15.13 8.34Q15.06 8.05 14.83 7.88L14.83 7.88L14.83 7.88Q14.60 7.71 14.14 7.71L14.14 7.71L14.14 7.71Q13.50 7.71 13.19 8.12L13.19 8.12L13.19 8.12Q12.84 8.60 12.33 8.60L12.33 8.60L12.33 8.60Q11.87 8.60 11.54 8.27L11.54 8.27L11.54 8.27Q11.21 7.94 11.21 7.46L11.21 7.46L11.21 7.46Q11.21 7.18 11.34 6.94L11.34 6.94L11.34 6.94Q11.47 6.69 11.70 6.54L11.70 6.54L11.70 6.54Q12.22 6.20 12.86 6.03L12.86 6.03L12.86 6.03Q13.50 5.87 14.17 5.87L14.17 5.87L14.17 5.87Q15.90 5.87 16.81 6.61L16.81 6.61L16.81 6.61Q17.71 7.35 17.71 9.04L17.71 9.04L17.70 11.03L17.70 11.03Q17.70 11.55 17.71 11.80L17.71 11.80L17.72 12.59L17.72 12.59Q17.72 13.08 17.37 13.44L17.37 13.44L17.37 13.44Q17.01 13.80 16.51 13.80L16.51 13.80L16.51 13.80Q16.04 13.80 15.71 13.51L15.71 13.51L15.71 13.51Q15.37 13.22 15.30 12.77L15.30 12.77L15.30 12.77Q14.87 13.37 14.29 13.62L14.29 13.62L14.29 13.62Q13.71 13.87 12.91 13.87L12.91 13.87ZM13.76 12.21L13.76 12.21Q14.45 12.21 14.83 11.75L14.83 11.75L14.83 11.75Q15.22 11.28 15.22 10.58L15.22 10.58L15.22 10.47L14.39 10.46L14.39 10.46Q12.85 10.46 12.85 11.40L12.85 11.40L12.85 11.40Q12.85 11.77 13.11 11.99L13.11 11.99L13.11 11.99Q13.37 12.21 13.76 12.21L13.76 12.21ZM21.70 13.93L21.70 13.93Q20.44 13.93 19.57 13.57L19.57 13.57L19.57 13.57Q18.69 13.20 18.69 12.40L18.69 12.40L18.69 12.40Q18.69 11.94 19.00 11.60L19.00 11.60L19.00 11.60Q19.31 11.26 19.80 11.26L19.80 11.26L19.80 11.26Q20.08 11.26 20.27 11.38L20.27 11.38L20.27 11.38Q20.47 11.49 20.66 11.72L20.66 11.72L20.66 11.72Q20.87 11.98 21.08 12.10L21.08 12.10L21.08 12.10Q21.29 12.21 21.76 12.21L21.76 12.21L21.76 12.21Q22.83 12.21 22.83 11.54L22.83 11.54L22.83 11.54Q22.83 11.31 22.67 11.17L22.67 11.17L22.67 11.17Q22.51 11.03 22.02 10.93L22.02 10.93L21.07 10.74L21.07 10.74Q19.75 10.47 19.14 9.94L19.14 9.94L19.14 9.94Q18.52 9.41 18.52 8.48L18.52 8.48L18.52 8.48Q18.52 7.28 19.47 6.57L19.47 6.57L19.47 6.57Q20.41 5.87 21.98 5.87L21.98 5.87L21.98 5.87Q23.13 5.87 23.98 6.23L23.98 6.23L23.98 6.23Q24.84 6.59 24.84 7.35L24.84 7.35L24.84 7.35Q24.84 7.85 24.54 8.16L24.54 8.16L24.54 8.16Q24.23 8.46 23.79 8.46L23.79 8.46L23.79 8.46Q23.28 8.46 22.92 7.99L22.92 7.99L22.92 7.99Q22.78 7.80 22.57 7.69L22.57 7.69L22.57 7.69Q22.36 7.57 21.94 7.57L21.94 7.57L21.94 7.57Q21.49 7.57 21.23 7.73L21.23 7.73L21.23 7.73Q20.97 7.88 20.97 8.18L20.97 8.18L20.97 8.18Q20.97 8.41 21.17 8.54L21.17 8.54L21.17 8.54Q21.36 8.67 21.84 8.76L21.84 8.76L22.93 8.99L22.93 8.99Q24.19 9.25 24.76 9.79L24.76 9.79L24.76 9.79Q25.33 10.32 25.33 11.26L25.33 11.26L25.33 11.26Q25.33 12.49 24.42 13.21L24.42 13.21L24.42 13.21Q23.52 13.93 21.70 13.93L21.70 13.93ZM27.54 13.80L27.54 13.80Q27.01 13.80 26.62 13.42L26.62 13.42L26.62 13.42Q26.24 13.03 26.24 12.50L26.24 12.50L26.24 3.99L26.24 3.99Q26.24 3.46 26.62 3.07L26.62 3.07L26.62 3.07Q27.01 2.69 27.54 2.69L27.54 2.69L27.54 2.69Q28.07 2.69 28.45 3.07L28.45 3.07L28.45 3.07Q28.84 3.46 28.84 3.99L28.84 3.99L28.84 7.22L28.84 7.22Q29.13 6.64 29.69 6.26L29.69 6.26L29.69 6.26Q30.25 5.89 31.12 5.89L31.12 5.89L31.12 5.89Q32.52 5.89 33.17 6.68L33.17 6.68L33.17 6.68Q33.81 7.48 33.81 8.86L33.81 8.86L33.81 12.50L33.81 12.50Q33.81 13.03 33.42 13.42L33.42 13.42L33.42 13.42Q33.04 13.80 32.51 13.80L32.51 13.80L32.51 13.80Q31.98 13.80 31.59 13.42L31.59 13.42L31.59 13.42Q31.21 13.03 31.21 12.50L31.21 12.50L31.21 9.27L31.21 9.27Q31.21 8.48 30.87 8.18L30.87 8.18L30.87 8.18Q30.53 7.87 30.10 7.87L30.10 7.87L30.10 7.87Q29.58 7.87 29.21 8.24L29.21 8.24L29.21 8.24Q28.84 8.61 28.84 9.59L28.84 9.59L28.84 12.50L28.84 12.50Q28.84 13.03 28.45 13.42L28.45 13.42L28.45 13.42Q28.07 13.80 27.54 13.80L27.54 13.80ZM37.10 13.87L37.10 13.87Q36.39 13.87 35.79 13.60L35.79 13.60L35.79 13.60Q35.20 13.33 34.85 12.80L34.85 12.80L34.85 12.80Q34.50 12.28 34.50 11.55L34.50 11.55L34.50 11.55Q34.50 10.07 35.62 9.57L35.62 9.57L35.62 9.57Q36.74 9.07 38.44 9.07L38.44 9.07L38.44 9.07Q38.77 9.07 38.92 9.09L38.92 9.09L39.40 9.10L39.40 9.10Q39.40 8.62 39.33 8.34L39.33 8.34L39.33 8.34Q39.26 8.05 39.02 7.88L39.02 7.88L39.02 7.88Q38.79 7.71 38.33 7.71L38.33 7.71L38.33 7.71Q37.69 7.71 37.38 8.12L37.38 8.12L37.38 8.12Q37.03 8.60 36.53 8.60L36.53 8.60L36.53 8.60Q36.06 8.60 35.73 8.27L35.73 8.27L35.73 8.27Q35.41 7.94 35.41 7.46L35.41 7.46L35.41 7.46Q35.41 7.18 35.53 6.94L35.53 6.94L35.53 6.94Q35.66 6.69 35.90 6.54L35.90 6.54L35.90 6.54Q36.41 6.20 37.05 6.03L37.05 6.03L37.05 6.03Q37.69 5.87 38.36 5.87L38.36 5.87L38.36 5.87Q40.10 5.87 41.00 6.61L41.00 6.61L41.00 6.61Q41.90 7.35 41.90 9.04L41.90 9.04L41.89 11.03L41.89 11.03Q41.89 11.55 41.90 11.80L41.90 11.80L41.92 12.59L41.92 12.59Q41.92 13.08 41.56 13.44L41.56 13.44L41.56 13.44Q41.20 13.80 40.70 13.80L40.70 13.80L40.70 13.80Q40.24 13.80 39.90 13.51L39.90 13.51L39.90 13.51Q39.56 13.22 39.49 12.77L39.49 12.77L39.49 12.77Q39.06 13.37 38.48 13.62L38.48 13.62L38.48 13.62Q37.90 13.87 37.10 13.87L37.10 13.87ZM37.95 12.21L37.95 12.21Q38.64 12.21 39.02 11.75L39.02 11.75L39.02 11.75Q39.41 11.28 39.41 10.58L39.41 10.58L39.41 10.47L38.58 10.46L38.58 10.46Q37.04 10.46 37.04 11.40L37.04 11.40L37.04 11.40Q37.04 11.77 37.30 11.99L37.30 11.99L37.30 11.99Q37.56 12.21 37.95 12.21L37.95 12.21ZM47.85 13.86L47.85 13.86Q46.94 13.86 46.43 13.57L46.43 13.57L46.43 13.57Q45.92 13.29 45.57 12.87L45.57 12.87L45.57 12.87Q45.49 13.27 45.14 13.54L45.14 13.54L45.14 13.54Q44.80 13.80 44.37 13.80L44.37 13.80L44.37 13.80Q43.88 13.80 43.53 13.45L43.53 13.45L43.53 13.45Q43.18 13.10 43.18 12.61L43.18 12.61L43.18 3.99L43.18 3.99Q43.18 3.46 43.56 3.07L43.56 3.07L43.56 3.07Q43.95 2.69 44.48 2.69L44.48 2.69L44.48 2.69Q45.01 2.69 45.39 3.07L45.39 3.07L45.39 3.07Q45.78 3.46 45.78 3.99L45.78 3.99L45.78 7.15L45.78 7.15Q46.47 5.91 47.99 5.91L47.99 5.91L47.99 5.91Q49.03 5.91 49.73 6.42L49.73 6.42L49.73 6.42Q50.44 6.93 50.79 7.79L50.79 7.79L50.79 7.79Q51.14 8.65 51.14 9.73L51.14 9.73L51.14 9.73Q51.14 10.99 50.71 11.93L50.71 11.93L50.71 11.93Q50.27 12.87 49.52 13.36L49.52 13.36L49.52 13.36Q48.78 13.86 47.85 13.86L47.85 13.86ZM47.11 12.11L47.11 12.11Q47.73 12.11 48.12 11.55L48.12 11.55L48.12 11.55Q48.52 10.99 48.52 9.87L48.52 9.87L48.52 9.87Q48.52 8.76 48.13 8.25L48.13 8.25L48.13 8.25Q47.74 7.73 47.14 7.73L47.14 7.73L47.14 7.73Q46.48 7.73 46.09 8.26L46.09 8.26L46.09 8.26Q45.71 8.79 45.71 9.87L45.71 9.87L45.71 9.87Q45.71 11.05 46.09 11.58L46.09 11.58L46.09 11.58Q46.48 12.11 47.11 12.11L47.11 12.11ZM53.45 13.80L53.45 13.80Q52.92 13.80 52.53 13.42L52.53 13.42L52.53 13.42Q52.15 13.03 52.15 12.50L52.15 12.50L52.15 3.99L52.15 3.99Q52.15 3.46 52.53 3.07L52.53 3.07L52.53 3.07Q52.92 2.69 53.45 2.69L53.45 2.69L53.45 2.69Q53.98 2.69 54.37 3.07L54.37 3.07L54.37 3.07Q54.75 3.46 54.75 3.99L54.75 3.99L54.75 12.50L54.75 12.50Q54.75 13.03 54.37 13.42L54.37 13.42L54.37 13.42Q53.98 13.80 53.45 13.80L53.45 13.80ZM59.72 13.90L59.72 13.90Q58.58 13.90 57.67 13.41L57.67 13.41L57.67 13.41Q56.76 12.92 56.24 12.01L56.24 12.01L56.24 12.01Q55.72 11.10 55.72 9.90L55.72 9.90L55.72 9.90Q55.72 8.74 56.20 7.82L56.20 7.82L56.20 7.82Q56.69 6.90 57.58 6.38L57.58 6.38L57.58 6.38Q58.48 5.87 59.67 5.87L59.67 5.87L59.67 5.87Q60.87 5.87 61.74 6.38L61.74 6.38L61.74 6.38Q62.61 6.89 63.05 7.71L63.05 7.71L63.05 7.71Q63.49 8.54 63.49 9.44L63.49 9.44L63.49 9.44Q63.49 10.01 63.22 10.29L63.22 10.29L63.22 10.29Q62.96 10.57 62.34 10.57L62.34 10.57L58.21 10.57L58.21 10.57Q58.28 11.26 58.70 11.66L58.70 11.66L58.70 11.66Q59.12 12.07 59.78 12.07L59.78 12.07L59.78 12.07Q60.17 12.07 60.44 11.94L60.44 11.94L60.44 11.94Q60.70 11.80 60.91 11.59L60.91 11.59L60.91 11.59Q61.11 11.41 61.27 11.32L61.27 11.32L61.27 11.32Q61.43 11.23 61.67 11.23L61.67 11.23L61.67 11.23Q62.10 11.23 62.41 11.54L62.41 11.54L62.41 11.54Q62.72 11.86 62.72 12.31L62.72 12.31L62.72 12.31Q62.72 12.80 62.30 13.15L62.30 13.15L62.30 13.15Q61.92 13.47 61.22 13.69L61.22 13.69L61.22 13.69Q60.52 13.90 59.72 13.90L59.72 13.90ZM58.23 9.04L60.98 9.04L60.98 9.04Q60.96 8.37 60.58 7.98L60.58 7.98L60.58 7.98Q60.21 7.59 59.63 7.59L59.63 7.59L59.63 7.59Q59.04 7.59 58.67 7.98L58.67 7.98L58.67 7.98Q58.30 8.37 58.23 9.04L58.23 9.04Z" />
  </g>
  <defs
     id="defs847"
     data-v-fde0c5aa="">
    <!---->
  </defs>
  <g
     transform="matrix(0.0849702334033015,0,0,0.0849702334033015,36.85635548647999,125.28390217521147)"
     fill="#ffffff"
     stroke="none"
     id="10a40725-82ae-46fb-9d2b-2c8235b8e710"
     data-v-fde0c5aa="">
    <path
       id="path849"
       d="M293.932 33.946c-141.9 0-256.935 115.035-256.935 256.935 0 141.899 115.034 256.932 256.935 256.932 141.899 0 256.935-115.032 256.935-256.932-.001-141.901-115.036-256.935-256.935-256.935zm20.287 394.9v45.988h-44.186v-42.843c-30.206-1.347-59.509-9.458-76.643-19.379l13.521-52.753c18.941 10.374 45.541 19.837 74.845 19.837 25.697 0 43.281-9.915 43.281-27.954 0-17.129-14.424-27.95-47.79-39.218-48.241-16.233-81.154-38.78-81.154-82.516 0-39.675 27.952-70.78 76.196-80.254v-42.826h44.181v39.675c30.213 1.353 50.499 7.665 65.381 14.882l-13.078 50.943c-11.723-4.961-32.462-15.324-64.922-15.324-29.307 0-38.778 12.62-38.778 25.24 0 14.887 15.781 24.346 54.104 38.78 53.655 18.934 75.294 43.726 75.294 84.306 0 40.127-28.407 74.394-80.252 83.416z" />
  </g>
  <!---->
</svg>
